<mxfile host="app.diagrams.net" modified="2023-05-09T02:12:32.576Z" agent="Mozilla/5.0 (Windows NT 10.0; Win64; x64) AppleWebKit/537.36 (KHTML, like Gecko) Chrome/112.0.0.0 Safari/537.36" version="21.2.9" etag="dH7ev6dsa095B53vBke7" type="github">
  <diagram name="페이지-1" id="g1H9-xL2aS3aJURHIV_i">
    <mxGraphModel>
      <root>
        <mxCell id="0" />
        <mxCell id="1" parent="0" />
      </root>
    </mxGraphModel>
  </diagram>
</mxfile>
